<svg width="400" height="225" viewBox="0 0 400 225" fill="none" xmlns="http://www.w3.org/2000/svg">
<rect width="400" height="225" fill="white"/>
<g clip-path="url(#clip0_97_78)">
<path d="M163.327 70.5431L142.956 82.4083L139.719 65.1518L159.373 49.2148L163.327 70.5431Z" fill="#00AEEF"/>
<path d="M202.275 46.6963L182.622 57.9615L178.07 31.8376L197.72 15.8984L202.275 46.6963Z" fill="#00AEEF"/>
<path d="M227.919 69.2278L206.828 76.4147L202.273 46.8169L222.404 35.793L227.919 69.2278Z" fill="#00AEEF"/>
<path d="M254.404 99.9041L232.471 101.941L227.68 67.6672L248.888 62.6367L254.404 99.9041Z" fill="#00AEEF"/>
<path d="M212.342 104.934L191.129 109.127L187.055 83.4837L207.548 74.8555L212.342 104.934Z" fill="#00AEEF"/>
<path d="M238.347 135.371L216.421 134.773L211.984 104.695L233.191 101.102L238.347 135.371Z" fill="#00AEEF"/>
<path d="M187.176 83.7192L166.924 91.867L163.211 70.3018L182.983 57.7148L187.176 83.7192Z" fill="#00AEEF"/>
<path d="M170.999 113.678L149.908 117.517L146.312 100.261L167.045 92.2305L170.999 113.678Z" fill="#00AEEF"/>
<path d="M195.806 135.129H174.475L170.641 113.32L191.493 109.246L195.806 135.129Z" fill="#00AEEF"/>
<path d="M153.502 134.891L131.813 133.932L128.695 120.274L149.787 117.156L153.502 134.891Z" fill="#00AEEF"/>
<path d="M146.913 100.26L126.302 107.569L122.828 93.1887L143.08 82.5234L146.913 100.26Z" fill="#00AEEF"/>
<path d="M129.178 120.871L107.848 122.188L105.211 111.884L126.181 107.449L129.178 120.871Z" fill="#00AEEF"/>
<path d="M87.7422 148.012H92.5009V157.401H92.5944C93.0683 156.581 93.5726 155.825 94.0444 155.068L98.8661 148.012H104.76L97.7313 157.055L105.138 169.249H99.5291L94.3291 160.077L92.5009 162.314V169.244H87.7422V148.012Z" fill="#0B9444"/>
<path d="M136.504 160.269H128.689V165.308H137.417V169.249H123.867V148.008H136.976V151.949H128.689V156.358H136.504V160.269Z" fill="#0B9444"/>
<path d="M157.469 148.291C159.012 148.041 161.314 147.852 163.867 147.852C167.019 147.852 169.223 148.325 170.736 149.523C171.997 150.534 172.688 152.012 172.688 153.967C172.688 156.675 170.767 158.539 168.938 159.197V159.291C170.419 159.886 171.238 161.31 171.775 163.262C172.436 165.658 173.097 168.43 173.508 169.249H168.593C168.245 168.652 167.743 166.919 167.112 164.304C166.545 161.656 165.63 160.93 163.677 160.902H162.227V169.254H157.469V148.291ZM162.227 157.432H164.119C166.514 157.432 167.932 156.234 167.932 154.375C167.932 152.421 166.608 151.441 164.401 151.412C163.234 151.412 162.573 151.508 162.227 151.571V157.432Z" fill="#0B9444"/>
<path d="M198.163 163.797L196.652 169.249H191.672L198.163 148.008H204.463L211.048 169.249H205.881L204.241 163.797H198.163ZM203.552 160.206L202.233 155.701C201.854 154.44 201.476 152.862 201.161 151.603H201.1C200.783 152.862 200.472 154.469 200.124 155.701L198.863 160.206H203.552Z" fill="#0B9444"/>
<path d="M230.664 148.012H235.486V165.216H243.931V169.249H230.664V148.012Z" fill="#0B9444"/>
<path d="M268.679 163.797L267.168 169.249H262.188L268.679 148.008H274.979L281.564 169.249H276.396L274.757 163.797H268.679ZM274.064 160.206L272.742 155.701C272.364 154.44 271.985 152.862 271.672 151.603H271.609C271.292 152.862 270.981 154.469 270.633 155.701L269.372 160.206H274.064Z" fill="#0B9444"/>
<path d="M22.2674 205.136C23.9435 205.995 26.5174 206.852 29.1739 206.852C32.0348 206.852 33.5457 205.667 33.5457 203.869C33.5457 202.152 32.237 201.171 28.9283 199.986C24.3522 198.397 21.3674 195.863 21.3674 191.856C21.3674 187.156 25.2913 183.562 31.787 183.562C34.8935 183.562 37.1804 184.217 38.8152 184.954L37.4261 189.982C36.3217 189.452 34.3609 188.673 31.6652 188.673C28.9674 188.673 27.6587 189.897 27.6587 191.328C27.6587 193.089 29.213 193.863 32.7674 195.213C37.6304 197.008 39.9196 199.543 39.9196 203.423C39.9196 208.041 36.3652 211.967 28.8043 211.967C25.6587 211.967 22.5522 211.152 21 210.291L22.2674 205.136Z" fill="#231F20"/>
<path d="M48.9838 189.238H41.5859V184.008H62.7555V189.238H55.2359V211.551H48.9838V189.238Z" fill="#231F20"/>
<path d="M69.0836 204.482L67.1206 211.551H60.6641L69.0815 184.008H77.2554L85.7988 211.551H79.0967L76.9706 204.482H69.0836ZM76.0706 199.819L74.3532 193.975C73.8619 192.34 73.3728 190.299 72.9641 188.664H72.8815C72.4728 190.299 72.0641 192.384 71.6141 193.975L69.9793 199.819H76.0706Z" fill="#231F20"/>
<path d="M89.0234 184.377C91.0256 184.053 94.0082 183.801 97.3191 183.801C101.406 183.801 104.265 184.416 106.228 185.97C107.863 187.279 108.763 189.194 108.763 191.729C108.763 195.242 106.269 197.655 103.9 198.512V198.636C105.821 199.412 106.882 201.251 107.578 203.783C108.436 206.894 109.295 210.488 109.826 211.549H103.45C103 210.775 102.347 208.523 101.53 205.133C100.795 201.701 99.6104 200.759 97.0756 200.72H95.1974V211.551H89.0234V184.377ZM95.193 196.227H97.6452C100.752 196.227 102.589 194.675 102.589 192.264C102.589 189.729 100.871 188.464 98.0126 188.42C96.5017 188.42 95.643 188.544 95.193 188.627V196.227Z" fill="#231F20"/>
<path d="M118.109 189.238H110.711V184.008H131.881V189.238H124.361V211.551H118.109V189.238Z" fill="#231F20"/>
<path d="M140.942 184.008V199.862C140.942 204.606 142.74 207.014 145.927 207.014C149.196 207.014 150.994 204.723 150.994 199.862V184.008H157.205V199.453C157.205 207.953 152.914 211.999 145.72 211.999C138.774 211.999 134.688 208.153 134.688 199.369V184.008H140.942Z" fill="#231F20"/>
<path d="M162.141 184.377C164.06 184.053 166.76 183.801 170.56 183.801C174.401 183.801 177.138 184.54 178.98 186.012C180.736 187.403 181.923 189.686 181.923 192.388C181.923 195.083 181.023 197.373 179.388 198.927C177.262 200.931 174.117 201.827 170.438 201.827C169.621 201.827 168.886 201.786 168.312 201.705V211.553H162.143L162.141 184.377ZM168.31 196.881C168.843 197.007 169.495 197.044 170.395 197.044C173.704 197.044 175.749 195.368 175.749 192.551C175.749 190.016 173.991 188.507 170.886 188.507C169.619 188.507 168.76 188.631 168.31 188.749V196.881Z" fill="#231F20"/>
<path d="M216.518 201.01C216.392 197.699 216.272 193.695 216.272 189.686H216.148C215.288 193.201 214.149 197.127 213.083 200.356L209.733 211.099H204.872L201.929 200.434C201.029 197.206 200.088 193.282 199.435 189.686H199.353C199.192 193.406 199.068 197.656 198.859 201.09L198.375 211.553H192.609L194.368 184.01H202.662L205.357 193.203C206.218 196.393 207.077 199.823 207.688 203.051H207.812C208.588 199.862 209.527 196.225 210.427 193.162L213.37 184.008H221.499L223.009 211.553H216.92L216.518 201.01Z" fill="#231F20"/>
<path d="M233.59 184.008V211.551H227.336V184.008H233.59Z" fill="#231F20"/>
<path d="M238.738 205.136C240.412 205.995 242.988 206.852 245.643 206.852C248.504 206.852 250.017 205.667 250.017 203.869C250.017 202.152 248.708 201.171 245.397 199.986C240.823 198.397 237.838 195.863 237.838 191.856C237.838 187.156 241.762 183.562 248.258 183.562C251.367 183.562 253.654 184.217 255.288 184.954L253.893 189.982C252.793 189.452 250.834 188.673 248.134 188.673C245.438 188.673 244.13 189.897 244.13 191.328C244.13 193.089 245.684 193.863 249.238 195.213C254.104 197.008 256.393 199.543 256.393 203.423C256.393 208.041 252.834 211.967 245.277 211.967C242.127 211.967 239.023 211.152 237.469 210.291L238.738 205.136Z" fill="#231F20"/>
<path d="M260.349 205.136C262.025 205.995 264.599 206.852 267.258 206.852C270.114 206.852 271.634 205.667 271.634 203.869C271.634 202.152 270.323 201.171 267.014 199.986C262.44 198.397 259.451 195.863 259.451 191.856C259.451 187.156 263.377 183.562 269.875 183.562C272.982 183.562 275.266 184.217 276.901 184.954L275.512 189.982C274.408 189.452 272.447 188.673 269.751 188.673C267.056 188.673 265.747 189.897 265.747 191.328C265.747 193.089 267.297 193.863 270.856 195.213C275.716 197.008 278.006 199.543 278.006 203.423C278.006 208.041 274.451 211.967 266.89 211.967C263.747 211.967 260.636 211.152 259.086 210.291L260.349 205.136Z" fill="#231F20"/>
<path d="M288.004 184.008V211.551H281.75V184.008H288.004Z" fill="#231F20"/>
<path d="M318.157 197.493C318.157 206.524 312.676 212.002 304.626 212.002C296.452 212.002 291.672 205.83 291.672 197.985C291.672 189.728 296.948 183.559 305.076 183.559C313.537 183.559 318.157 189.893 318.157 197.493ZM298.257 197.861C298.257 203.254 300.787 207.054 304.957 207.054C309.17 207.054 311.576 203.048 311.576 197.693C311.576 192.75 309.207 188.5 304.918 188.5C300.707 188.5 298.257 192.509 298.257 197.861Z" fill="#231F20"/>
<path d="M321.781 211.551V184.008H329.059L334.779 194.101C336.414 197.006 338.049 200.436 339.275 203.545H339.399C338.99 199.906 338.868 196.186 338.868 192.062V184.01H344.588V211.553H338.049L332.164 200.925C330.529 197.982 328.733 194.43 327.383 191.201L327.26 191.243C327.425 194.88 327.505 198.762 327.505 203.256V211.551H321.781Z" fill="#231F20"/>
<path d="M360.2 202.302C365.376 202.302 369.572 198.106 369.572 192.93C369.572 187.754 365.376 183.559 360.2 183.559C355.024 183.559 350.828 187.754 350.828 192.93C350.828 198.106 355.024 202.302 360.2 202.302Z" stroke="black" stroke-width="0.58" stroke-miterlimit="10"/>
<path d="M356.805 198.001V188.664H360.944C361.776 188.664 362.409 188.749 362.842 188.914C363.274 189.084 363.62 189.379 363.881 189.803C364.142 190.227 364.27 190.697 364.27 191.21C364.27 191.873 364.055 192.431 363.626 192.886C363.198 193.34 362.535 193.629 361.64 193.751C361.966 193.908 362.216 194.064 362.385 194.216C362.746 194.547 363.087 194.962 363.411 195.458L365.035 197.999H363.481L362.246 196.055C361.885 195.495 361.587 195.066 361.355 194.768C361.122 194.471 360.911 194.264 360.729 194.145C360.542 194.025 360.355 193.942 360.163 193.897C360.024 193.866 359.794 193.851 359.476 193.851H358.044V197.997H356.805V198.001ZM358.039 192.784H360.696C361.261 192.784 361.703 192.727 362.02 192.608C362.337 192.492 362.581 192.305 362.746 192.047C362.911 191.792 362.994 191.512 362.994 191.21C362.994 190.768 362.833 190.405 362.511 190.121C362.189 189.836 361.685 189.694 360.994 189.694H358.039V192.784Z" fill="black"/>
</g>
<defs>
<clipPath id="clip0_97_78">
<rect width="358.696" height="200" fill="white" transform="translate(21 12)"/>
</clipPath>
</defs>
</svg>
